<svg xmlns="http://www.w3.org/2000/svg" xmlns:xlink="http://www.w3.org/1999/xlink" width="200" zoomAndPan="magnify" viewBox="0 0 150 149.999998" height="200" preserveAspectRatio="xMidYMid meet" version="1.0"><defs><g/></defs><g fill="#ff3131" fill-opacity="1"><g transform="translate(12.90273, 109.32033)"><g><path d="M 61.21875 -71.296875 L 61.21875 0 L 43.8125 0 L 43.8125 -5.1875 C 40.414062 -1.15625 35.328125 0.859375 28.546875 0.859375 C 23.796875 0.859375 19.46875 -0.242188 15.5625 -2.453125 C 11.65625 -4.660156 8.5625 -7.8125 6.28125 -11.90625 C 4.007812 -16.007812 2.875 -20.753906 2.875 -26.140625 C 2.875 -31.515625 4.007812 -36.234375 6.28125 -40.296875 C 8.5625 -44.367188 11.65625 -47.492188 15.5625 -49.671875 C 19.46875 -51.859375 23.796875 -52.953125 28.546875 -52.953125 C 34.753906 -52.953125 39.554688 -51.15625 42.953125 -47.5625 L 42.953125 -71.296875 Z M 32.390625 -13.640625 C 35.523438 -13.640625 38.113281 -14.742188 40.15625 -16.953125 C 42.207031 -19.171875 43.234375 -22.234375 43.234375 -26.140625 C 43.234375 -29.984375 42.222656 -32.992188 40.203125 -35.171875 C 38.191406 -37.347656 35.585938 -38.4375 32.390625 -38.4375 C 29.179688 -38.4375 26.550781 -37.347656 24.5 -35.171875 C 22.445312 -32.992188 21.421875 -29.984375 21.421875 -26.140625 C 21.421875 -22.234375 22.445312 -19.171875 24.5 -16.953125 C 26.550781 -14.742188 29.179688 -13.640625 32.390625 -13.640625 Z M 32.390625 -13.640625 "/></g></g></g><g fill="#ff3131" fill-opacity="1"><g transform="translate(70.176593, 109.32033)"><g><path d="M 39.78125 -52.953125 C 46.25 -52.953125 51.453125 -51.03125 55.390625 -47.1875 C 59.335938 -43.34375 61.3125 -37.539062 61.3125 -29.78125 L 61.3125 0 L 43.046875 0 L 43.046875 -26.8125 C 43.046875 -33.914062 40.195312 -37.46875 34.5 -37.46875 C 31.351562 -37.46875 28.835938 -36.441406 26.953125 -34.390625 C 25.066406 -32.347656 24.125 -29.273438 24.125 -25.171875 L 24.125 0 L 5.859375 0 L 5.859375 -71.296875 L 24.125 -71.296875 L 24.125 -47.28125 C 26.101562 -49.132812 28.4375 -50.539062 31.125 -51.5 C 33.820312 -52.46875 36.707031 -52.953125 39.78125 -52.953125 Z M 39.78125 -52.953125 "/></g></g></g><g fill="#ff3131" fill-opacity="1"><g transform="translate(127.268089, 109.32033)"><g/></g></g></svg>